<svg aria-hidden="true" style="position:absolute;width:0;height:0;overflow:hidden" xmlns="http://www.w3.org/2000/svg">
  <defs>
    <symbol id="icon-right" viewBox="0 0 51 32">
      <path stroke-linejoin="miter" stroke-linecap="butt" stroke-miterlimit="4" stroke-width="2.1333" d="M36.267 2.133l12.134 13.867-12.134 13.867M46.933 16h-46.933"></path>
    </symbol>
    <symbol id="icon-vector" viewBox="0 0 25 32">
      <path fill="transparent" stroke-width="1.778" d="M1.778 1.778 23.111 16 1.778 30.222"/>
    </symbol>
    <symbol id="icon-frame" viewBox="0 0 32 32">
      <path d="M4.905 3.765H0V0h8.271l.845 7.529h21.002v11.178L7.096 23.283 4.906 3.764zM29.176 32a2.824 2.824 0 1 1 0-5.648 2.824 2.824 0 0 1 0 5.648zm-18.823 0a2.824 2.824 0 1 1 0-5.648 2.824 2.824 0 0 1 0 5.648z"/>
    </symbol>
    <symbol id="icon-logo" viewBox="0 0 150 32">
      <path d="M0 .192h18.862v4.431H5.149v9.039H18.33v4.298H5.149v13.425H.001V.192zM22.223 11.092h4.882v20.293h-4.882V11.092zm-.222-9.748h5.326v6.203h-5.326V1.344zM34.634 15.079h-4.438v-3.988h4.438V5.685l4.882-1.063v6.469h5.237v3.988h-5.237v16.305h-4.882V15.079zM60.347 10.604c2.278 0 4.054.635 5.326 1.905 1.302 1.241 1.953 3.116 1.953 5.627v13.248h-4.837V19.066c0-1.477-.385-2.585-1.154-3.323s-1.834-1.108-3.195-1.108c-1.302 0-2.441.34-3.417 1.019s-1.701 1.61-2.175 2.791v12.938h-4.882V11.09h4.882v3.19a8.17 8.17 0 0 1 3.151-2.703c1.272-.65 2.722-.975 4.349-.975zM90.477 19.687c0 .857-.104 1.92-.311 3.19H75.875c.533 3.338 2.722 5.007 6.568 5.007 2.13 0 4.142-.532 6.036-1.595v4.076c-2.189 1.004-4.379 1.506-6.568 1.506s-4.113-.443-5.769-1.329c-1.657-.886-2.944-2.127-3.861-3.722-.888-1.625-1.332-3.5-1.332-5.627 0-2.097.414-3.944 1.243-5.539.858-1.625 2.056-2.865 3.595-3.722 1.568-.886 3.373-1.329 5.414-1.329 2.84 0 5.089.827 6.746 2.481 1.686 1.625 2.53 3.825 2.53 6.602zm-9.187-5.095c-1.568 0-2.825.443-3.772 1.329-.917.857-1.479 2.112-1.686 3.766h10.429c0-1.625-.429-2.88-1.287-3.766s-2.086-1.329-3.684-1.329zM99.762 28.062c1.036 0 1.849-.207 2.441-.62.592-.443.888-1.049.888-1.817 0-.679-.296-1.226-.888-1.639-.562-.443-1.687-.96-3.373-1.551-2.189-.768-3.772-1.61-4.749-2.525s-1.465-2.053-1.465-3.412c0-1.743.74-3.161 2.219-4.254s3.417-1.639 5.814-1.639c2.367 0 4.704.576 7.012 1.728v4.076a15.264 15.264 0 0 0-3.417-1.462c-1.213-.384-2.396-.576-3.55-.576-.976 0-1.746.177-2.308.532-.532.325-.799.783-.799 1.374 0 .532.237.975.71 1.329.503.354 1.465.768 2.885 1.241 1.775.62 3.151 1.24 4.127 1.861 1.006.591 1.716 1.256 2.13 1.994s.621 1.625.621 2.658c0 2.068-.725 3.678-2.175 4.83-1.45 1.122-3.476 1.684-6.08 1.684-2.219 0-4.556-.679-7.012-2.038v-4.032c1.095.679 2.248 1.226 3.462 1.639s2.382.62 3.506.62zM117.401 28.062c1.036 0 1.849-.207 2.441-.62.592-.443.888-1.049.888-1.817 0-.679-.296-1.226-.888-1.639-.562-.443-1.686-.96-3.373-1.551-2.189-.768-3.772-1.61-4.749-2.525s-1.464-2.053-1.464-3.412c0-1.743.74-3.161 2.219-4.254s3.417-1.639 5.814-1.639c2.367 0 4.704.576 7.012 1.728v4.076a15.264 15.264 0 0 0-3.417-1.462c-1.213-.384-2.397-.576-3.55-.576-.976 0-1.746.177-2.308.532-.533.325-.799.783-.799 1.374 0 .532.237.975.71 1.329.503.354 1.465.768 2.885 1.241 1.775.62 3.151 1.24 4.127 1.861 1.006.591 1.716 1.256 2.13 1.994s.621 1.625.621 2.658c0 2.068-.725 3.678-2.175 4.83-1.45 1.122-3.476 1.684-6.08 1.684-2.219 0-4.556-.679-7.012-2.038v-4.032c1.095.679 2.249 1.226 3.462 1.639s2.382.62 3.506.62zM139.168 31.872c-2.219 0-4.172-.443-5.858-1.329-1.687-.916-2.988-2.171-3.905-3.766s-1.376-3.441-1.376-5.539c0-2.097.459-3.943 1.376-5.538s2.219-2.836 3.905-3.722c1.686-.916 3.639-1.374 5.858-1.374s4.157.458 5.814 1.374c1.686.886 2.988 2.127 3.905 3.722s1.376 3.441 1.376 5.538c0 2.097-.459 3.944-1.376 5.539s-2.219 2.85-3.905 3.766c-1.657.886-3.595 1.329-5.814 1.329zm0-3.988c1.775 0 3.24-.606 4.394-1.817s1.731-2.821 1.731-4.83c0-2.008-.577-3.618-1.731-4.829s-2.618-1.817-4.394-1.817c-1.775 0-3.24.606-4.394 1.817s-1.731 2.821-1.731 4.829c0 2.009.577 3.619 1.731 4.83s2.618 1.817 4.394 1.817zM48.232 0h101.089v4.308H48.232V0z"/>
    </symbol>
    <symbol id="icon-youtube" viewBox="0 0 32 32">
<path fill="#fff" style="fill: var(--color1, #fff)" d="M14.007 18.998l5.204-2.998-5.204-2.998v5.995z"></path>
<path fill="#fff" style="fill: var(--color1, #fff)" d="M16 0c-8.835 0-16 7.165-16 16s7.165 16 16 16 16-7.165 16-16-7.165-16-16-16zM25.998 16.017s0 3.244-0.412 4.809c-0.238 0.86-0.902 1.524-1.745 1.758l-0.018 0.004c-1.565 0.412-7.823 0.412-7.823 0.412s-6.242 0-7.823-0.428c-0.86-0.239-1.524-0.902-1.758-1.745l-0.004-0.018c-0.412-1.548-0.412-4.809-0.412-4.809s0-3.245 0.412-4.809c0.23-0.857 0.922-1.548 1.762-1.778 1.564-0.412 7.823-0.412 7.823-0.412s6.258 0 7.823 0.428c0.86 0.239 1.524 0.902 1.758 1.745l0.004 0.018c0.428 1.565 0.412 4.826 0.412 4.826z"></path>
</symbol>
<symbol id="icon-twitter" viewBox="0 0 32 32">
<path fill="#fff" style="fill: var(--color1, #fff)" d="M16 0c-8.822 0-16 7.178-16 16s7.178 16 16 16c8.822 0 16-7.178 16-16s-7.177-16-16-16zM23.138 12.338c0.007 0.158 0.011 0.318 0.011 0.478 0 4.867-3.703 10.476-10.479 10.476-2.080 0-4.016-0.608-5.645-1.653 0.288 0.034 0.581 0.052 0.878 0.052 1.726 0 3.313-0.59 4.574-1.577-1.605-0.031-2.956-1.083-3.433-2.532l-0.007-0.026c0.21 0.042 0.451 0.066 0.697 0.066 0.343 0 0.676-0.047 0.991-0.134l-0.026 0.006c-1.697-0.352-2.954-1.834-2.954-3.61 0-0 0-0.001 0-0.001v0l0.001-0.047c0.481 0.272 1.053 0.441 1.662 0.46l0.006 0c-0.993-0.669-1.638-1.79-1.638-3.061 0-0.001 0-0.002 0-0.004v0c0-0.675 0.181-1.308 0.498-1.852 1.824 2.232 4.522 3.69 7.564 3.848l0.026 0.001c-0.060-0.249-0.095-0.535-0.095-0.829 0-0.004 0-0.008 0-0.011v0.001c0-0.001 0-0.002 0-0.002 0-2.034 1.649-3.682 3.682-3.682 1.059 0 2.014 0.447 2.686 1.163l0.002 0.002c0.882-0.176 1.666-0.486 2.373-0.912l-0.033 0.018c-0.286 0.868-0.859 1.576-1.605 2.028l-0.016 0.009c0.785-0.094 1.499-0.298 2.161-0.598l-0.046 0.019c-0.502 0.747-1.111 1.378-1.814 1.889l-0.021 0.015z"></path>
</symbol>
<symbol id="icon-insta" viewBox="0 0 32 32">
<path fill="#fff" style="fill: var(--color1, #fff)" d="M19.063 16c0 1.692-1.371 3.063-3.063 3.063s-3.063-1.371-3.063-3.063v0c0-1.692 1.371-3.063 3.063-3.063s3.063 1.371 3.063 3.063v0z"></path>
<path fill="#fff" style="fill: var(--color1, #fff)" d="M23.162 10.582c-0.155-0.414-0.389-0.767-0.686-1.055l-0.001-0.001c-0.289-0.298-0.642-0.532-1.037-0.681l-0.020-0.006c-0.324-0.126-0.81-0.276-1.706-0.316-0.969-0.044-1.26-0.054-3.713-0.054s-2.744 0.009-3.713 0.054c-0.896 0.041-1.382 0.191-1.706 0.316-0.414 0.155-0.767 0.39-1.056 0.687l-0.001 0.001c-0.298 0.289-0.532 0.642-0.681 1.036l-0.007 0.020c-0.126 0.324-0.275 0.81-0.316 1.706-0.044 0.969-0.054 1.259-0.054 3.713s0.010 2.743 0.054 3.713c0.041 0.895 0.191 1.382 0.316 1.706 0.148 0.399 0.382 0.76 0.687 1.056 0.289 0.298 0.642 0.532 1.037 0.681l0.020 0.006c0.324 0.126 0.81 0.276 1.706 0.316 0.969 0.044 1.259 0.054 3.713 0.054s2.744-0.009 3.713-0.054c0.895-0.041 1.382-0.191 1.706-0.316 0.803-0.316 1.428-0.94 1.736-1.723l0.007-0.021c0.126-0.324 0.276-0.81 0.317-1.706 0.044-0.969 0.054-1.26 0.054-3.713s-0.010-2.745-0.054-3.713c-0.041-0.896-0.191-1.383-0.317-1.706zM16 20.718c-2.606 0-4.718-2.112-4.718-4.718s2.112-4.718 4.718-4.718v0c2.606 0 4.718 2.112 4.718 4.718s-2.112 4.718-4.718 4.718v0zM20.905 12.198c-0.008 0-0.017 0-0.026 0-0.609 0-1.103-0.494-1.103-1.103s0.494-1.103 1.103-1.103c0.009 0 0.018 0 0.027 0l-0.001-0c0.598 0.015 1.077 0.503 1.077 1.102s-0.479 1.088-1.075 1.102l-0.001 0z"></path>
<path fill="#fff" style="fill: var(--color1, #fff)" d="M16 0c-8.835 0-16 7.165-16 16s7.165 16 16 16 16-7.165 16-16-7.165-16-16-16zM25.132 19.788c-0.045 0.978-0.2 1.646-0.427 2.23-0.488 1.238-1.449 2.2-2.656 2.676l-0.032 0.011c-0.584 0.227-1.252 0.382-2.23 0.427-0.98 0.044-1.293 0.055-3.788 0.055s-2.808-0.011-3.788-0.055c-0.978-0.045-1.646-0.2-2.23-0.427-0.637-0.244-1.18-0.604-1.627-1.059l-0.001-0.001c-0.455-0.448-0.816-0.991-1.049-1.597l-0.010-0.031c-0.228-0.584-0.383-1.252-0.427-2.23-0.046-0.98-0.055-1.293-0.055-3.788s0.010-2.808 0.055-3.788c0.044-0.978 0.199-1.646 0.426-2.23 0.244-0.637 0.604-1.18 1.059-1.627l0.001-0.001c0.448-0.456 0.991-0.816 1.597-1.049l0.031-0.010c0.585-0.227 1.252-0.382 2.23-0.427 0.98-0.044 1.292-0.055 3.788-0.055s2.808 0.011 3.788 0.055c0.978 0.045 1.646 0.2 2.23 0.427 0.637 0.244 1.18 0.604 1.627 1.059l0.001 0.001c0.456 0.448 0.816 0.991 1.049 1.597l0.010 0.031c0.228 0.585 0.382 1.252 0.427 2.23 0.045 0.98 0.055 1.292 0.055 3.788s-0.010 2.808-0.055 3.788z"></path>
</symbol>
<symbol id="icon-li" viewBox="0 0 32 32">
<path fill="#fff" style="fill: var(--color1, #fff)" d="M18.916 13.726c-1.37 0-1.982 0.753-2.324 1.281v-1.098h-2.578c0.033 0.727 0 7.76 0 7.76h2.578v-4.335c0-0.231 0.015-0.464 0.085-0.63 0.186-0.464 0.61-0.944 1.323-0.944 0.934 0 1.307 0.711 1.307 1.756v4.151h2.58v-4.45c-0.001-2.382-1.274-3.491-2.971-3.491zM16.59 15.034h-0.016c0.006-0.009 0.013-0.018 0.016-0.026v0.026zM12.583 13.909h-2.578v7.76h2.578v-7.76z"></path>
<path fill="#fff" style="fill: var(--color1, #fff)" d="M16 0c-8.822 0-16 7.178-16 16s7.178 16 16 16c8.822 0 16-7.178 16-16s-7.177-16-16-16zM24.485 23.237c0 0.681-0.565 1.231-1.263 1.231h-14.553c-0.696 0-1.262-0.55-1.262-1.231v-14.722c0-0.68 0.566-1.231 1.262-1.231h14.553c0.697 0 1.263 0.551 1.263 1.231v14.722z"></path>
<path fill="#fff" style="fill: var(--color1, #fff)" d="M11.311 10.168c-0.882 0-1.459 0.578-1.459 1.341 0 0.745 0.56 1.34 1.425 1.34h0.017c0.9 0 1.46-0.596 1.46-1.34-0.018-0.761-0.56-1.341-1.442-1.341z"></path>
</symbol>
  </defs>
</svg>
