<svg aria-hidden="true" style="position:absolute;width:0;height:0;overflow:hidden" xmlns="http://www.w3.org/2000/svg">
  <defs>
    <symbol id="icon-right" viewBox="0 0 51 32">
      <path stroke-linejoin="miter" stroke-linecap="butt" stroke-miterlimit="4" stroke-width="2.1333" d="M36.267 2.133l12.134 13.867-12.134 13.867M46.933 16h-46.933"></path>
    </symbol>
    <symbol id="icon-vector" viewBox="0 0 25 32">
      <path fill="transparent" stroke-width="1.778" d="M1.778 1.778 23.111 16 1.778 30.222"/>
    </symbol>
    <symbol id="icon-frame" viewBox="0 0 32 32">
      <path d="M4.905 3.765H0V0h8.271l.845 7.529h21.002v11.178L7.096 23.283 4.906 3.764zM29.176 32a2.824 2.824 0 1 1 0-5.648 2.824 2.824 0 0 1 0 5.648zm-18.823 0a2.824 2.824 0 1 1 0-5.648 2.824 2.824 0 0 1 0 5.648z"/>
    </symbol>
    <symbol id="icon-logo" viewBox="0 0 150 32">
      <path d="M0 .192h18.862v4.431H5.149v9.039H18.33v4.298H5.149v13.425H.001V.192zM22.223 11.092h4.882v20.293h-4.882V11.092zm-.222-9.748h5.326v6.203h-5.326V1.344zM34.634 15.079h-4.438v-3.988h4.438V5.685l4.882-1.063v6.469h5.237v3.988h-5.237v16.305h-4.882V15.079zM60.347 10.604c2.278 0 4.054.635 5.326 1.905 1.302 1.241 1.953 3.116 1.953 5.627v13.248h-4.837V19.066c0-1.477-.385-2.585-1.154-3.323s-1.834-1.108-3.195-1.108c-1.302 0-2.441.34-3.417 1.019s-1.701 1.61-2.175 2.791v12.938h-4.882V11.09h4.882v3.19a8.17 8.17 0 0 1 3.151-2.703c1.272-.65 2.722-.975 4.349-.975zM90.477 19.687c0 .857-.104 1.92-.311 3.19H75.875c.533 3.338 2.722 5.007 6.568 5.007 2.13 0 4.142-.532 6.036-1.595v4.076c-2.189 1.004-4.379 1.506-6.568 1.506s-4.113-.443-5.769-1.329c-1.657-.886-2.944-2.127-3.861-3.722-.888-1.625-1.332-3.5-1.332-5.627 0-2.097.414-3.944 1.243-5.539.858-1.625 2.056-2.865 3.595-3.722 1.568-.886 3.373-1.329 5.414-1.329 2.84 0 5.089.827 6.746 2.481 1.686 1.625 2.53 3.825 2.53 6.602zm-9.187-5.095c-1.568 0-2.825.443-3.772 1.329-.917.857-1.479 2.112-1.686 3.766h10.429c0-1.625-.429-2.88-1.287-3.766s-2.086-1.329-3.684-1.329zM99.762 28.062c1.036 0 1.849-.207 2.441-.62.592-.443.888-1.049.888-1.817 0-.679-.296-1.226-.888-1.639-.562-.443-1.687-.96-3.373-1.551-2.189-.768-3.772-1.61-4.749-2.525s-1.465-2.053-1.465-3.412c0-1.743.74-3.161 2.219-4.254s3.417-1.639 5.814-1.639c2.367 0 4.704.576 7.012 1.728v4.076a15.264 15.264 0 0 0-3.417-1.462c-1.213-.384-2.396-.576-3.55-.576-.976 0-1.746.177-2.308.532-.532.325-.799.783-.799 1.374 0 .532.237.975.71 1.329.503.354 1.465.768 2.885 1.241 1.775.62 3.151 1.24 4.127 1.861 1.006.591 1.716 1.256 2.13 1.994s.621 1.625.621 2.658c0 2.068-.725 3.678-2.175 4.83-1.45 1.122-3.476 1.684-6.08 1.684-2.219 0-4.556-.679-7.012-2.038v-4.032c1.095.679 2.248 1.226 3.462 1.639s2.382.62 3.506.62zM117.401 28.062c1.036 0 1.849-.207 2.441-.62.592-.443.888-1.049.888-1.817 0-.679-.296-1.226-.888-1.639-.562-.443-1.686-.96-3.373-1.551-2.189-.768-3.772-1.61-4.749-2.525s-1.464-2.053-1.464-3.412c0-1.743.74-3.161 2.219-4.254s3.417-1.639 5.814-1.639c2.367 0 4.704.576 7.012 1.728v4.076a15.264 15.264 0 0 0-3.417-1.462c-1.213-.384-2.397-.576-3.55-.576-.976 0-1.746.177-2.308.532-.533.325-.799.783-.799 1.374 0 .532.237.975.71 1.329.503.354 1.465.768 2.885 1.241 1.775.62 3.151 1.24 4.127 1.861 1.006.591 1.716 1.256 2.13 1.994s.621 1.625.621 2.658c0 2.068-.725 3.678-2.175 4.83-1.45 1.122-3.476 1.684-6.08 1.684-2.219 0-4.556-.679-7.012-2.038v-4.032c1.095.679 2.249 1.226 3.462 1.639s2.382.62 3.506.62zM139.168 31.872c-2.219 0-4.172-.443-5.858-1.329-1.687-.916-2.988-2.171-3.905-3.766s-1.376-3.441-1.376-5.539c0-2.097.459-3.943 1.376-5.538s2.219-2.836 3.905-3.722c1.686-.916 3.639-1.374 5.858-1.374s4.157.458 5.814 1.374c1.686.886 2.988 2.127 3.905 3.722s1.376 3.441 1.376 5.538c0 2.097-.459 3.944-1.376 5.539s-2.219 2.85-3.905 3.766c-1.657.886-3.595 1.329-5.814 1.329zm0-3.988c1.775 0 3.24-.606 4.394-1.817s1.731-2.821 1.731-4.83c0-2.008-.577-3.618-1.731-4.829s-2.618-1.817-4.394-1.817c-1.775 0-3.24.606-4.394 1.817s-1.731 2.821-1.731 4.829c0 2.009.577 3.619 1.731 4.83s2.618 1.817 4.394 1.817zM48.232 0h101.089v4.308H48.232V0z"/>
    </symbol>
    <symbol id="icon-youtube" viewBox="0 0 32 32">
<path fill="#fff" style="fill: var(--color1, #fff)" d="M14.007 18.998l5.204-2.998-5.204-2.998v5.995z"></path>
<path fill="#fff" style="fill: var(--color1, #fff)" d="M16 0c-8.835 0-16 7.165-16 16s7.165 16 16 16 16-7.165 16-16-7.165-16-16-16zM25.998 16.017s0 3.244-0.412 4.809c-0.238 0.86-0.902 1.524-1.745 1.758l-0.018 0.004c-1.565 0.412-7.823 0.412-7.823 0.412s-6.242 0-7.823-0.428c-0.86-0.239-1.524-0.902-1.758-1.745l-0.004-0.018c-0.412-1.548-0.412-4.809-0.412-4.809s0-3.245 0.412-4.809c0.23-0.857 0.922-1.548 1.762-1.778 1.564-0.412 7.823-0.412 7.823-0.412s6.258 0 7.823 0.428c0.86 0.239 1.524 0.902 1.758 1.745l0.004 0.018c0.428 1.565 0.412 4.826 0.412 4.826z"></path>
</symbol>
<symbol id="icon-twitter" viewBox="0 0 32 32">
<path fill="#fff" style="fill: var(--color1, #fff)" d="M16 0c-8.822 0-16 7.178-16 16s7.178 16 16 16c8.822 0 16-7.178 16-16s-7.177-16-16-16zM23.138 12.338c0.007 0.158 0.011 0.318 0.011 0.478 0 4.867-3.703 10.476-10.479 10.476-2.080 0-4.016-0.608-5.645-1.653 0.288 0.034 0.581 0.052 0.878 0.052 1.726 0 3.313-0.59 4.574-1.577-1.605-0.031-2.956-1.083-3.433-2.532l-0.007-0.026c0.21 0.042 0.451 0.066 0.697 0.066 0.343 0 0.676-0.047 0.991-0.134l-0.026 0.006c-1.697-0.352-2.954-1.834-2.954-3.61 0-0 0-0.001 0-0.001v0l0.001-0.047c0.481 0.272 1.053 0.441 1.662 0.46l0.006 0c-0.993-0.669-1.638-1.79-1.638-3.061 0-0.001 0-0.002 0-0.004v0c0-0.675 0.181-1.308 0.498-1.852 1.824 2.232 4.522 3.69 7.564 3.848l0.026 0.001c-0.060-0.249-0.095-0.535-0.095-0.829 0-0.004 0-0.008 0-0.011v0.001c0-0.001 0-0.002 0-0.002 0-2.034 1.649-3.682 3.682-3.682 1.059 0 2.014 0.447 2.686 1.163l0.002 0.002c0.882-0.176 1.666-0.486 2.373-0.912l-0.033 0.018c-0.286 0.868-0.859 1.576-1.605 2.028l-0.016 0.009c0.785-0.094 1.499-0.298 2.161-0.598l-0.046 0.019c-0.502 0.747-1.111 1.378-1.814 1.889l-0.021 0.015z"></path>
</symbol>
<symbol id="icon-insta" viewBox="0 0 32 32">
<path fill="#fff" style="fill: var(--color1, #fff)" d="M19.063 16c0 1.692-1.371 3.063-3.063 3.063s-3.063-1.371-3.063-3.063v0c0-1.692 1.371-3.063 3.063-3.063s3.063 1.371 3.063 3.063v0z"></path>
<path fill="#fff" style="fill: var(--color1, #fff)" d="M23.162 10.582c-0.155-0.414-0.389-0.767-0.686-1.055l-0.001-0.001c-0.289-0.298-0.642-0.532-1.037-0.681l-0.020-0.006c-0.324-0.126-0.81-0.276-1.706-0.316-0.969-0.044-1.26-0.054-3.713-0.054s-2.744 0.009-3.713 0.054c-0.896 0.041-1.382 0.191-1.706 0.316-0.414 0.155-0.767 0.39-1.056 0.687l-0.001 0.001c-0.298 0.289-0.532 0.642-0.681 1.036l-0.007 0.020c-0.126 0.324-0.275 0.81-0.316 1.706-0.044 0.969-0.054 1.259-0.054 3.713s0.010 2.743 0.054 3.713c0.041 0.895 0.191 1.382 0.316 1.706 0.148 0.399 0.382 0.76 0.687 1.056 0.289 0.298 0.642 0.532 1.037 0.681l0.020 0.006c0.324 0.126 0.81 0.276 1.706 0.316 0.969 0.044 1.259 0.054 3.713 0.054s2.744-0.009 3.713-0.054c0.895-0.041 1.382-0.191 1.706-0.316 0.803-0.316 1.428-0.94 1.736-1.723l0.007-0.021c0.126-0.324 0.276-0.81 0.317-1.706 0.044-0.969 0.054-1.26 0.054-3.713s-0.010-2.745-0.054-3.713c-0.041-0.896-0.191-1.383-0.317-1.706zM16 20.718c-2.606 0-4.718-2.112-4.718-4.718s2.112-4.718 4.718-4.718v0c2.606 0 4.718 2.112 4.718 4.718s-2.112 4.718-4.718 4.718v0zM20.905 12.198c-0.008 0-0.017 0-0.026 0-0.609 0-1.103-0.494-1.103-1.103s0.494-1.103 1.103-1.103c0.009 0 0.018 0 0.027 0l-0.001-0c0.598 0.015 1.077 0.503 1.077 1.102s-0.479 1.088-1.075 1.102l-0.001 0z"></path>
<path fill="#fff" style="fill: var(--color1, #fff)" d="M16 0c-8.835 0-16 7.165-16 16s7.165 16 16 16 16-7.165 16-16-7.165-16-16-16zM25.132 19.788c-0.045 0.978-0.2 1.646-0.427 2.23-0.488 1.238-1.449 2.2-2.656 2.676l-0.032 0.011c-0.584 0.227-1.252 0.382-2.23 0.427-0.98 0.044-1.293 0.055-3.788 0.055s-2.808-0.011-3.788-0.055c-0.978-0.045-1.646-0.2-2.23-0.427-0.637-0.244-1.18-0.604-1.627-1.059l-0.001-0.001c-0.455-0.448-0.816-0.991-1.049-1.597l-0.010-0.031c-0.228-0.584-0.383-1.252-0.427-2.23-0.046-0.98-0.055-1.293-0.055-3.788s0.010-2.808 0.055-3.788c0.044-0.978 0.199-1.646 0.426-2.23 0.244-0.637 0.604-1.18 1.059-1.627l0.001-0.001c0.448-0.456 0.991-0.816 1.597-1.049l0.031-0.010c0.585-0.227 1.252-0.382 2.23-0.427 0.98-0.044 1.292-0.055 3.788-0.055s2.808 0.011 3.788 0.055c0.978 0.045 1.646 0.2 2.23 0.427 0.637 0.244 1.18 0.604 1.627 1.059l0.001 0.001c0.456 0.448 0.816 0.991 1.049 1.597l0.010 0.031c0.228 0.585 0.382 1.252 0.427 2.23 0.045 0.98 0.055 1.292 0.055 3.788s-0.010 2.808-0.055 3.788z"></path>
</symbol>
<symbol id="icon-li" viewBox="0 0 32 32">
<path fill="#fff" style="fill: var(--color1, #fff)" d="M18.916 13.726c-1.37 0-1.982 0.753-2.324 1.281v-1.098h-2.578c0.033 0.727 0 7.76 0 7.76h2.578v-4.335c0-0.231 0.015-0.464 0.085-0.63 0.186-0.464 0.61-0.944 1.323-0.944 0.934 0 1.307 0.711 1.307 1.756v4.151h2.58v-4.45c-0.001-2.382-1.274-3.491-2.971-3.491zM16.59 15.034h-0.016c0.006-0.009 0.013-0.018 0.016-0.026v0.026zM12.583 13.909h-2.578v7.76h2.578v-7.76z"></path>
<path fill="#fff" style="fill: var(--color1, #fff)" d="M16 0c-8.822 0-16 7.178-16 16s7.178 16 16 16c8.822 0 16-7.178 16-16s-7.177-16-16-16zM24.485 23.237c0 0.681-0.565 1.231-1.263 1.231h-14.553c-0.696 0-1.262-0.55-1.262-1.231v-14.722c0-0.68 0.566-1.231 1.262-1.231h14.553c0.697 0 1.263 0.551 1.263 1.231v14.722z"></path>
<path fill="#fff" style="fill: var(--color1, #fff)" d="M11.311 10.168c-0.882 0-1.459 0.578-1.459 1.341 0 0.745 0.56 1.34 1.425 1.34h0.017c0.9 0 1.46-0.596 1.46-1.34-0.018-0.761-0.56-1.341-1.442-1.341z"></path>
</symbol>
<symbol id="icon-lign" viewBox="0 0 99 32">
<path d="M-10.147 3.971l97.347-35.514 22.144 59.574-97.344 35.514z"></path>
</symbol>
<symbol id="icon-stripe" viewBox="0 0 76 32">
<path fill="#6772e5" style="fill: var(--color1, #6772e5)" d="M76.096 16.527c0-5.396-2.614-9.654-7.609-9.654-5.017 0-8.052 4.258-8.052 9.612 0 6.346 3.584 9.551 8.726 9.551 2.508 0 4.406-0.571 5.839-1.371v-4.217c-1.433 0.716-3.077 1.159-5.164 1.159-2.043 0-3.857-0.716-4.089-3.205h10.306c0-0.271 0.042-1.369 0.042-1.876zM65.684 14.526c0-2.383 1.452-3.372 2.782-3.372 1.287 0 2.658 0.99 2.658 3.372h-5.44zM52.298 6.873c-2.068 0-3.394 0.97-4.13 1.644l-0.276-1.307h-4.638v24.581l5.27-1.118 0.022-5.967c0.758 0.549 1.876 1.329 3.732 1.329 3.771 0 7.207-3.038 7.207-9.718-0.020-6.114-3.498-9.445-7.188-9.445zM51.033 21.396c-1.243 0-1.982-0.443-2.486-0.99l-0.022-7.82c0.549-0.613 1.307-1.034 2.511-1.034 1.918 0 3.244 2.151 3.244 4.913 0 2.823-1.305 4.933-3.247 4.933zM41.295 4.49v-4.278l-5.292 1.118v4.3l5.292-1.14z"></path>
<path fill="#6772e5" style="fill: var(--color1, #6772e5)" d="M41.295 7.232h-5.292v18.444h5.292v-18.444z"></path>
<path fill="#6772e5" style="fill: var(--color1, #6772e5)" d="M30.334 8.793l-0.337-1.561h-4.554v18.444h5.27v-12.5c1.243-1.625 3.353-1.329 4.005-1.095v-4.849c-0.674-0.254-3.141-0.716-4.384 1.561zM19.793 2.658l-5.145 1.093-0.020 16.886c0 3.121 2.338 5.418 5.46 5.418 1.728 0 2.993-0.315 3.69-0.697v-4.278c-0.674 0.273-4.005 1.243-4.005-1.876v-7.483h4.005v-4.492h-4.005l0.017-4.571zM5.543 12.586c0-0.822 0.674-1.14 1.792-1.14 1.6 0 3.626 0.485 5.228 1.349v-4.953c-1.512-0.614-3.266-0.97-5.103-0.97-0.044 0-0.088 0-0.132 0.001l0.007-0c-4.278 0-7.124 2.235-7.124 5.967 0 5.817 8.010 4.889 8.010 7.399 0 0.967-0.844 1.285-2.023 1.285-1.75 0-3.985-0.716-5.755-1.686v5.017c1.696 0.753 3.673 1.194 5.753 1.201h0.003c4.382 0 7.397-2.171 7.397-5.945-0.020-6.282-8.049-5.164-8.049-7.525z"></path>
</symbol>
<symbol id="icon-paypal" viewBox="0 0 32 32">
<path fill="#002987" style="fill: var(--color2, #002987)" d="M26.806 8.268c0.052-0.4 0.081-0.862 0.081-1.332 0-0.004 0-0.009 0-0.013v0.001c0-3.824-3.1-6.924-6.924-6.924h-11.569c-0 0-0.001 0-0.001 0-0.736 0-1.348 0.533-1.47 1.234l-0.001 0.009-4.263 25.342c-0.013 0.075-0.021 0.161-0.021 0.249 0 0.823 0.667 1.491 1.49 1.492h4.234c0 0 0 0 0 0 0.738 0 1.352-0.532 1.478-1.234l0.001-0.009 0.020-0.118-0.591 3.505c-0.011 0.065-0.018 0.14-0.018 0.217 0 0.726 0.588 1.314 1.314 1.314 0 0 0.001 0 0.001 0h3.702c0.64 0 1.189-0.463 1.297-1.095l1.051-6.252c0.185-1.065 1.102-1.864 2.205-1.866h0.975c5.283 0 9.566-4.283 9.566-9.566v0c0-2.043-1.009-3.852-2.56-4.953z"></path>
<path fill="#0085cc" style="fill: var(--color3, #0085cc)" d="M26.806 8.266c-0.692 5.415-5.271 9.558-10.818 9.558h-3.23c-0.735 0-1.355 0.49-1.553 1.16l-0.003 0.011-1.93 11.471c-0.012 0.066-0.018 0.142-0.018 0.219 0 0.726 0.588 1.314 1.313 1.314h3.702c0.64 0 1.189-0.463 1.297-1.095l1.051-6.252c0.185-1.065 1.102-1.864 2.205-1.866h0.975c5.283 0 9.566-4.283 9.566-9.566 0-0.001 0-0.002 0-0.003v0c0-2.043-1.009-3.85-2.56-4.953z"></path>
<path fill="#00186a" style="fill: var(--color4, #00186a)" d="M12.758 17.824h3.23c5.545-0.001 10.123-4.143 10.81-9.501l0.006-0.054c-0.975-0.703-2.195-1.125-3.512-1.125-0.002 0-0.004 0-0.006 0h-8.428c-0.97 0-1.776 0.703-1.936 1.628l-0.002 0.012-1.718 10.215c0.2-0.683 0.82-1.173 1.556-1.174h0z"></path>
</symbol>
<symbol id="icon-ae" viewBox="0 0 85 32">
<path fill="#2557d6" style="fill: var(--color5, #2557d6)" d="M62.509 4.55l-1.638 3.825h3.287l-1.649-3.825zM43.597 6.918c0.309-0.156 0.489-0.493 0.489-0.913 0-0.41-0.188-0.708-0.499-0.847-0.282-0.156-0.715-0.173-1.129-0.173h-2.929v2.131h2.893c0.463 0 0.849-0.006 1.176-0.198zM6.025 4.546l-1.619 3.827h3.249l-1.63-3.825zM81.47 29.054h-4.6v-2.059h4.58c0.456 0 0.772-0.056 0.964-0.237 0.173-0.153 0.282-0.375 0.282-0.623 0-0.001 0-0.001 0-0.002v0c0-0.009 0.001-0.020 0.001-0.030 0-0.245-0.114-0.463-0.291-0.605l-0.002-0.001c-0.173-0.145-0.424-0.213-0.84-0.213-2.234-0.073-5.026 0.068-5.026-2.97 0-1.393 0.919-2.857 3.418-2.857h4.744v-1.909h-4.407c-1.331 0-2.296 0.307-2.982 0.785v-0.785h-6.517c-1.041 0-2.264 0.25-2.842 0.785v-0.785h-11.642v0.785c-0.926-0.644-2.488-0.785-3.209-0.785h-7.68v0.785c-0.732-0.683-2.362-0.785-3.354-0.785h-8.593l-1.965 2.052-1.843-2.052h-12.838v13.395h12.595l2.027-2.084 1.909 2.084 7.763 0.006v-3.149h0.762c1.030 0.015 2.246-0.024 3.317-0.471v3.614h6.404v-3.492h0.309c0.395 0 0.433 0.015 0.433 0.395v3.095h19.452c1.235 0 2.526-0.303 3.241-0.856v0.856h6.17c1.282 0 2.537-0.173 3.49-0.617v-2.494c-0.578 0.815-1.705 1.227-3.23 1.227zM41.984 25.892h-2.97v3.219h-4.629l-2.931-3.177-3.049 3.177h-9.431v-9.598h9.577l2.929 3.145 3.031-3.145h7.607c1.89 0 4.013 0.504 4.013 3.162 0 2.665-2.065 3.217-4.147 3.217zM56.271 25.455c0.339 0.471 0.386 0.907 0.395 1.752v1.903h-2.391v-1.201c0-0.578 0.056-1.431-0.384-1.879-0.348-0.344-0.879-0.425-1.749-0.425h-2.543v3.505h-2.391v-9.598h5.496c1.205 0 2.084 0.051 2.865 0.452 0.753 0.439 1.224 1.037 1.224 2.133 0 0.017 0.001 0.037 0.001 0.057 0 1.125-0.69 2.088-1.669 2.491l-0.018 0.007c0.529 0.188 0.962 0.525 1.167 0.806zM66.108 21.498h-5.576v1.743h5.44v1.958h-5.44v1.911l5.576 0.009v1.992h-7.947v-9.598h7.947v1.984zM72.226 29.111h-4.636v-2.057h4.619c0.452 0 0.772-0.058 0.973-0.239 0.173-0.154 0.282-0.378 0.282-0.626 0-0.253-0.112-0.48-0.29-0.634l-0.001-0.001c-0.183-0.145-0.433-0.213-0.847-0.213-2.229-0.073-5.018 0.068-5.018-2.97 0-1.393 0.909-2.857 3.407-2.857h4.772v2.042h-4.367c-0.433 0-0.715 0.017-0.954 0.173-0.262 0.156-0.358 0.386-0.358 0.691 0 0.363 0.22 0.61 0.521 0.715 0.25 0.085 0.52 0.109 0.926 0.109l1.28 0.034c1.293 0.028 2.182 0.245 2.722 0.772 0.463 0.461 0.712 1.045 0.712 2.033 0 2.065-1.34 3.029-3.74 3.029zM53.76 21.653c-0.288-0.166-0.713-0.173-1.137-0.173h-2.933v2.155h2.893c0.463 0 0.856-0.017 1.175-0.198 0.298-0.183 0.494-0.507 0.494-0.877 0-0.016-0-0.032-0.001-0.047l0 0.002c0-0.41-0.184-0.708-0.493-0.862zM80.363 21.48c-0.433 0-0.721 0.015-0.962 0.173-0.252 0.154-0.348 0.386-0.348 0.691 0 0.361 0.211 0.608 0.52 0.715 0.252 0.083 0.521 0.107 0.919 0.107l1.289 0.034c1.303 0.030 2.172 0.245 2.703 0.772 0.096 0.075 0.154 0.156 0.22 0.239v-2.731h-4.341zM42.067 21.48h-3.106v2.443h3.080c0.915 0 1.483-0.437 1.483-1.267 0-0.84-0.597-1.178-1.457-1.178zM21.346 21.48v1.745h5.227v1.958h-5.227v1.909h5.854l2.72-2.814-2.603-2.797h-5.971zM36.632 28.19v-7.691l-3.654 3.784 3.656 3.91zM21.545 12.781v1.653h19.895l-0.009-3.497h0.384c0.271 0.008 0.348 0.032 0.348 0.461v3.036h10.289v-0.813c0.83 0.427 2.121 0.813 3.821 0.813h4.329l0.924-2.131h2.054l0.907 2.131h8.341v-2.022l1.261 2.024h6.686v-13.382h-6.615v1.581l-0.926-1.581h-6.788v1.581l-0.851-1.581h-9.169c-1.536 0-2.884 0.207-3.974 0.783v-0.783h-6.328v0.781c-0.695-0.593-1.638-0.781-2.69-0.781h-23.115l-1.553 3.456-1.592-3.456h-7.281v1.581l-0.8-1.581h-6.21l-2.884 6.362v5.090l4.264-9.596h3.539l4.049 9.086v-9.086h3.887l3.117 6.509 2.861-6.509h3.966v9.596h-2.441l-0.009-7.514-3.452 7.514h-2.089l-3.464-7.522v7.522h-4.843l-0.913-2.14h-4.96l-0.922 2.14h-2.588v1.931h4.070l0.917-2.133h2.054l0.915 2.133h8.008v-1.63l0.715 1.638h4.154l0.715-1.662zM52.894 4.028c0.77-0.766 1.976-1.12 3.616-1.12h2.306v2.056h-2.259c-0.866 0-1.357 0.124-1.832 0.568-0.405 0.405-0.683 1.167-0.683 2.174 0 1.028 0.213 1.769 0.655 2.253 0.365 0.38 1.032 0.495 1.658 0.495h1.071l3.356-7.546h3.567l4.032 9.077v-9.075h3.625l4.184 6.682v-6.682h2.44v9.596h-3.375l-4.512-7.202v7.202h-4.851l-0.926-2.14h-4.947l-0.898 2.14h-2.786c-1.158 0-2.624-0.247-3.454-1.062-0.838-0.815-1.272-1.92-1.272-3.663 0-1.423 0.26-2.724 1.284-3.753zM47.996 2.908h2.428v9.596h-2.428v-9.594zM37.041 2.908h5.478c1.218 0 2.114 0.032 2.884 0.459 0.753 0.429 1.205 1.054 1.205 2.125 0 1.53-1.060 2.321-1.675 2.558 0.52 0.19 0.964 0.527 1.176 0.808 0.337 0.478 0.395 0.904 0.395 1.76v1.886h-2.402l-0.009-1.21c0-0.578 0.056-1.408-0.376-1.869-0.348-0.339-0.879-0.41-1.736-0.41h-2.556v3.49h-2.381v-9.594zM27.443 2.908h7.955v1.999h-5.572v1.728h5.438v1.967h-5.44v1.92h5.574v1.984h-7.953v-9.596z"></path>
</symbol>
<symbol id="icon-master" viewBox="0 0 49 32">
<path fill="#ff5f00" style="fill: var(--color6, #ff5f00)" d="M31.111 5.575h-12.987v20.844h12.987v-20.844z"></path>
<path fill="#eb001b" style="fill: var(--color7, #eb001b)" d="M19.461 16c0-0.002 0-0.005 0-0.007 0-2.108 0.5-4.1 1.388-5.862l-0.034 0.075c0.93-1.851 2.212-3.398 3.77-4.605l0.030-0.023c-2.283-1.767-5.188-2.833-8.341-2.833-2.141 0-4.166 0.491-5.971 1.367l0.082-0.036c-2.299 1.112-4.177 2.783-5.507 4.841l-0.032 0.053c-1.288 1.989-2.055 4.42-2.058 7.029v0.001c0 2.486 0.714 4.923 2.055 7.033 1.362 2.11 3.239 3.78 5.459 4.856l0.080 0.035c1.723 0.84 3.749 1.331 5.89 1.331 3.153 0 6.057-1.065 8.372-2.856l-0.032 0.023c-1.587-1.23-2.869-2.777-3.763-4.552l-0.035-0.076c-0.854-1.688-1.354-3.679-1.354-5.787 0-0.003 0-0.007 0-0.010v0.001z"></path>
<path fill="#f79e1b" style="fill: var(--color8, #f79e1b)" d="M45.15 24.214v-0.426h0.187v-0.089h-0.443v0.089h0.172v0.426h0.084zM46.016 24.214v-0.517h-0.135l-0.158 0.369-0.158-0.369h-0.135v0.517h0.098v-0.386l0.148 0.335h0.098l0.148-0.335v0.389h0.094zM46.439 16c0 2.486-0.714 4.923-2.055 7.033-1.362 2.11-3.239 3.78-5.459 4.856l-0.080 0.035c-1.724 0.84-3.75 1.332-5.891 1.332-3.153 0-6.058-1.066-8.373-2.857l0.032 0.023c1.587-1.231 2.868-2.777 3.763-4.551l0.035-0.076c0.855-1.69 1.355-3.684 1.355-5.796s-0.501-4.106-1.39-5.871l0.034 0.075c-0.93-1.85-2.211-3.397-3.768-4.605l-0.030-0.023c2.284-1.768 5.188-2.833 8.342-2.833 2.141 0 4.167 0.491 5.973 1.367l-0.081-0.036c2.299 1.11 4.177 2.78 5.507 4.836l0.032 0.053c1.344 2.11 2.055 4.546 2.055 7.035v0.002z"></path>
</symbol>
  </defs>
</svg>
