<svg aria-hidden="true" style="position:absolute;width:0;height:0;overflow:hidden" xmlns="http://www.w3.org/2000/svg">
  <defs>
    <symbol id="icon-vector" viewBox="0 0 25 32">
      <path fill="transparent" stroke-width="1.778" d="M1.778 1.778 23.111 16 1.778 30.222"/>
    </symbol>
    <symbol id="icon-frame" viewBox="0 0 32 32">
      <path d="M4.905 3.765H0V0h8.271l.845 7.529h21.002v11.178L7.096 23.283 4.906 3.764zM29.176 32a2.824 2.824 0 1 1 0-5.648 2.824 2.824 0 0 1 0 5.648zm-18.823 0a2.824 2.824 0 1 1 0-5.648 2.824 2.824 0 0 1 0 5.648z"/>
    </symbol>
    <symbol id="icon-logo" viewBox="0 0 150 32">
      <path d="M0 .192h18.862v4.431H5.149v9.039H18.33v4.298H5.149v13.425H.001V.192zM22.223 11.092h4.882v20.293h-4.882V11.092zm-.222-9.748h5.326v6.203h-5.326V1.344zM34.634 15.079h-4.438v-3.988h4.438V5.685l4.882-1.063v6.469h5.237v3.988h-5.237v16.305h-4.882V15.079zM60.347 10.604c2.278 0 4.054.635 5.326 1.905 1.302 1.241 1.953 3.116 1.953 5.627v13.248h-4.837V19.066c0-1.477-.385-2.585-1.154-3.323s-1.834-1.108-3.195-1.108c-1.302 0-2.441.34-3.417 1.019s-1.701 1.61-2.175 2.791v12.938h-4.882V11.09h4.882v3.19a8.17 8.17 0 0 1 3.151-2.703c1.272-.65 2.722-.975 4.349-.975zM90.477 19.687c0 .857-.104 1.92-.311 3.19H75.875c.533 3.338 2.722 5.007 6.568 5.007 2.13 0 4.142-.532 6.036-1.595v4.076c-2.189 1.004-4.379 1.506-6.568 1.506s-4.113-.443-5.769-1.329c-1.657-.886-2.944-2.127-3.861-3.722-.888-1.625-1.332-3.5-1.332-5.627 0-2.097.414-3.944 1.243-5.539.858-1.625 2.056-2.865 3.595-3.722 1.568-.886 3.373-1.329 5.414-1.329 2.84 0 5.089.827 6.746 2.481 1.686 1.625 2.53 3.825 2.53 6.602zm-9.187-5.095c-1.568 0-2.825.443-3.772 1.329-.917.857-1.479 2.112-1.686 3.766h10.429c0-1.625-.429-2.88-1.287-3.766s-2.086-1.329-3.684-1.329zM99.762 28.062c1.036 0 1.849-.207 2.441-.62.592-.443.888-1.049.888-1.817 0-.679-.296-1.226-.888-1.639-.562-.443-1.687-.96-3.373-1.551-2.189-.768-3.772-1.61-4.749-2.525s-1.465-2.053-1.465-3.412c0-1.743.74-3.161 2.219-4.254s3.417-1.639 5.814-1.639c2.367 0 4.704.576 7.012 1.728v4.076a15.264 15.264 0 0 0-3.417-1.462c-1.213-.384-2.396-.576-3.55-.576-.976 0-1.746.177-2.308.532-.532.325-.799.783-.799 1.374 0 .532.237.975.71 1.329.503.354 1.465.768 2.885 1.241 1.775.62 3.151 1.24 4.127 1.861 1.006.591 1.716 1.256 2.13 1.994s.621 1.625.621 2.658c0 2.068-.725 3.678-2.175 4.83-1.45 1.122-3.476 1.684-6.08 1.684-2.219 0-4.556-.679-7.012-2.038v-4.032c1.095.679 2.248 1.226 3.462 1.639s2.382.62 3.506.62zM117.401 28.062c1.036 0 1.849-.207 2.441-.62.592-.443.888-1.049.888-1.817 0-.679-.296-1.226-.888-1.639-.562-.443-1.686-.96-3.373-1.551-2.189-.768-3.772-1.61-4.749-2.525s-1.464-2.053-1.464-3.412c0-1.743.74-3.161 2.219-4.254s3.417-1.639 5.814-1.639c2.367 0 4.704.576 7.012 1.728v4.076a15.264 15.264 0 0 0-3.417-1.462c-1.213-.384-2.397-.576-3.55-.576-.976 0-1.746.177-2.308.532-.533.325-.799.783-.799 1.374 0 .532.237.975.71 1.329.503.354 1.465.768 2.885 1.241 1.775.62 3.151 1.24 4.127 1.861 1.006.591 1.716 1.256 2.13 1.994s.621 1.625.621 2.658c0 2.068-.725 3.678-2.175 4.83-1.45 1.122-3.476 1.684-6.08 1.684-2.219 0-4.556-.679-7.012-2.038v-4.032c1.095.679 2.249 1.226 3.462 1.639s2.382.62 3.506.62zM139.168 31.872c-2.219 0-4.172-.443-5.858-1.329-1.687-.916-2.988-2.171-3.905-3.766s-1.376-3.441-1.376-5.539c0-2.097.459-3.943 1.376-5.538s2.219-2.836 3.905-3.722c1.686-.916 3.639-1.374 5.858-1.374s4.157.458 5.814 1.374c1.686.886 2.988 2.127 3.905 3.722s1.376 3.441 1.376 5.538c0 2.097-.459 3.944-1.376 5.539s-2.219 2.85-3.905 3.766c-1.657.886-3.595 1.329-5.814 1.329zm0-3.988c1.775 0 3.24-.606 4.394-1.817s1.731-2.821 1.731-4.83c0-2.008-.577-3.618-1.731-4.829s-2.618-1.817-4.394-1.817c-1.775 0-3.24.606-4.394 1.817s-1.731 2.821-1.731 4.829c0 2.009.577 3.619 1.731 4.83s2.618 1.817 4.394 1.817zM48.232 0h101.089v4.308H48.232V0z"/>
    </symbol>
  </defs>
</svg>
